<svg width="63" height="63" viewBox="0 0 63 63" fill="none" xmlns="http://www.w3.org/2000/svg">
<g clip-path="url(#clip0_20_856)">
<path fill-rule="evenodd" clip-rule="evenodd" d="M41.2309 29.6441C41.723 30.1364 41.9994 30.804 41.9994 31.5C41.9994 32.1961 41.723 32.8636 41.2309 33.3559L26.3812 48.2055C26.1391 48.4562 25.8494 48.6562 25.5292 48.7938C25.2089 48.9314 24.8645 49.0038 24.5159 49.0068C24.1674 49.0098 23.8217 48.9434 23.4991 48.8114C23.1765 48.6794 22.8834 48.4845 22.6369 48.2381C22.3905 47.9916 22.1956 47.6985 22.0636 47.3759C21.9316 47.0533 21.8652 46.7076 21.8682 46.3591C21.8712 46.0105 21.9436 45.6661 22.0812 45.3458C22.2188 45.0256 22.4188 44.7359 22.6695 44.4938L35.6632 31.5L22.6695 18.5063C22.1913 18.0112 21.9267 17.3481 21.9327 16.6598C21.9387 15.9716 22.2148 15.3132 22.7015 14.8265C23.1882 14.3398 23.8465 14.0637 24.5348 14.0577C25.2231 14.0518 25.8862 14.3163 26.3812 14.7945L41.2309 29.6441Z" fill="#C1C1C1"/>
</g>
<defs>
<clipPath id="clip0_20_856">
<rect width="63" height="63" fill="white" transform="translate(0 63) rotate(-90)"/>
</clipPath>
</defs>
</svg>
