<svg width="63" height="63" viewBox="0 0 63 63" fill="none" xmlns="http://www.w3.org/2000/svg">
<g clip-path="url(#clip0_20_860)">
<path fill-rule="evenodd" clip-rule="evenodd" d="M21.7691 33.3559C21.277 32.8636 21.0005 32.196 21.0005 31.5C21.0005 30.8039 21.277 30.1364 21.7691 29.6441L36.6187 14.7945C36.8609 14.5438 37.1505 14.3438 37.4708 14.2062C37.791 14.0686 38.1355 13.9962 38.484 13.9932C38.8326 13.9902 39.1782 14.0566 39.5008 14.1886C39.8234 14.3206 40.1165 14.5155 40.363 14.7619C40.6095 15.0084 40.8044 15.3015 40.9364 15.6241C41.0683 15.9467 41.1348 16.2924 41.1317 16.6409C41.1287 16.9895 41.0563 17.3339 40.9187 17.6542C40.7811 17.9744 40.5812 18.2641 40.3305 18.5062L27.3367 31.5L40.3305 44.4937C40.8086 44.9888 41.0732 45.6519 41.0672 46.3402C41.0612 47.0284 40.7852 47.6868 40.2985 48.1735C39.8118 48.6602 39.1534 48.9363 38.4651 48.9423C37.7769 48.9482 37.1138 48.6837 36.6187 48.2055L21.7691 33.3559Z" fill="#C1C1C1"/>
</g>
<defs>
<clipPath id="clip0_20_860">
<rect width="63" height="63" fill="white" transform="translate(63) rotate(90)"/>
</clipPath>
</defs>
</svg>
